<?xml version="1.0" encoding="UTF-8"?>
<svg width="58px" height="50px" viewBox="0 0 58 50" version="1.1" xmlns="http://www.w3.org/2000/svg" xmlns:xlink="http://www.w3.org/1999/xlink">
    <!-- Generator: Sketch 51.3 (57544) - http://www.bohemiancoding.com/sketch -->
    <title>028 - Relaxed Heart</title>
    <desc>Created with Sketch.</desc>
    <defs></defs>
    <g id="Page-1" stroke="none" stroke-width="1" fill="none" fill-rule="evenodd">
        <g id="028---Relaxed-Heart" transform="translate(-3.000000, -2.000000)" fill-rule="nonzero">
            <path d="M38.55,48.6 L32,52 L25.45,48.6 C21.5468297,46.5889372 17.9004929,44.1143974 14.59,41.23 C6.69,34.27 1.2,24.8 3.54,13.9 C4.29412534,10.0314707 6.57257091,6.6288535 9.86235098,4.45823818 C13.152131,2.28762286 17.1767226,1.53146087 21.03,2.36 C26.4247961,3.65916918 30.6514834,7.84732697 32,13.23 C33.3485166,7.84732697 37.5752039,3.65916918 42.97,2.36 C44.546309,1.99636122 46.1736778,1.90839534 47.78,2.1 C54.0973067,2.91247313 59.1960247,7.6573369 60.46,13.9 C63.78,29.39 51.32,41.98 38.55,48.6 Z" id="Shape" fill="#C03A2B"></path>
            <path d="M54,18.96 C54.0020564,28.3347368 48.9560267,36.9843073 40.7942663,41.5963958 C32.6325058,46.2084842 22.6196198,46.0684811 14.59,41.23 C6.69,34.27 1.2,24.8 3.54,13.9 C4.29412534,10.0314707 6.57257091,6.6288535 9.86235098,4.45823818 C13.152131,2.28762286 17.1767226,1.53146087 21.03,2.36 C26.4247961,3.65916918 30.6514834,7.84732697 32,13.23 C33.3485166,7.84732697 37.5752039,3.65916918 42.97,2.36 C44.546309,1.99636122 46.1736778,1.90839534 47.78,2.1 C51.8033592,6.79503645 54.0101927,12.7769035 54,18.96 Z" id="Shape" fill="#E64C3C"></path>
            <ellipse id="Oval" fill="#FB7B76" transform="translate(12.556395, 13.339072) rotate(-55.907000) translate(-12.556395, -13.339072) " cx="12.5563947" cy="13.3390715" rx="10.5" ry="7.5"></ellipse>
            <ellipse id="Oval" fill="#FB7B76" cx="19.5" cy="29.5" rx="4.5" ry="2.5"></ellipse>
            <ellipse id="Oval" fill="#FB7B76" cx="44.5" cy="29.5" rx="4.5" ry="2.5"></ellipse>
            <path d="M22,26 C20.3431458,26 19,24.6568542 19,23 C19,22.4477153 19.4477153,22 20,22 C20.5522847,22 21,22.4477153 21,23 C21,23.5522847 21.4477153,24 22,24 C22.5522847,24 23,23.5522847 23,23 C23,22.4477153 23.4477153,22 24,22 C24.5522847,22 25,22.4477153 25,23 C25,24.6568542 23.6568542,26 22,26 Z" id="Shape" fill="#2C3E50"></path>
            <path d="M42,26 C40.3431458,26 39,24.6568542 39,23 C39,22.4477153 39.4477153,22 40,22 C40.5522847,22 41,22.4477153 41,23 C41,23.5522847 41.4477153,24 42,24 C42.5522847,24 43,23.5522847 43,23 C43,22.4477153 43.4477153,22 44,22 C44.5522847,22 45,22.4477153 45,23 C45,24.6568542 43.6568542,26 42,26 Z" id="Shape" fill="#2C3E50"></path>
            <path d="M32,32 C26.068,32 26,28.04 26,28 C25.9947533,27.4477153 26.4382153,26.9957467 26.9905,26.9905 C27.5427847,26.9852533 27.9947533,27.4287153 28,27.981 C28.012,28.203 28.226,30 32,30 C35.794,30 35.99,28.185 36,27.978 C36.0365494,27.4384819 36.4822687,27.018033 37.023,27.013 C37.5635121,27.0200959 37.9984085,27.4594437 38,28 C38,28.04 37.932,32 32,32 Z" id="Shape" fill="#802D40"></path>
        </g>
    </g>
</svg>